<svg width="1896" height="1171" viewBox="0 0 1896 1171" fill="none" xmlns="http://www.w3.org/2000/svg">
<g opacity="0.25">
<g opacity="0.2443">
<path opacity="0.2443" d="M400.614 478.225L508.13 443.579L424.028 414.339L400.614 478.225ZM503.655 443.504L403.349 475.796L425.291 416.173L503.655 443.504Z" fill="#EDD999"/>
</g>
<g opacity="0.5038">
<path opacity="0.5038" d="M314.525 302.81L327.778 200.628L326.234 201.293L183.252 256.46L314.525 302.81ZM325.516 202.978L312.873 300.768L187.124 256.295L325.516 202.978Z" fill="#EDD999"/>
</g>
<g opacity="0.8777">
<path opacity="0.8777" d="M183.861 257.448L328.303 201.903L209.896 139.254L194.482 191.937L183.861 257.448ZM324.773 201.671L186.123 255.098L196.247 192.053L211.033 141.517L324.773 201.671Z" fill="#EDD999"/>
</g>
<g opacity="0.5761">
<path opacity="0.5761" d="M848.93 501.716L850.821 501.402L831.996 455.824L816.887 449.815L848.93 501.716ZM830.41 456.632L844.891 491.692L820.74 452.786L830.41 456.632Z" fill="#EDD999"/>
</g>
<g opacity="0.1811">
<path opacity="0.1811" d="M919.168 454.588L1032.06 463.05L986.719 405.113L919.168 454.588ZM1028.65 461.64L923.249 453.707L986.264 407.436L1028.65 461.64Z" fill="#EDD999"/>
</g>
<g opacity="0.6975">
<path opacity="0.6975" d="M359.508 783.221L360.753 782.81L444.011 749.598L348.468 742.551L359.508 783.221ZM437.949 750.33L360.782 781.171L350.544 743.909L437.949 750.33Z" fill="#EDD999"/>
</g>
<g opacity="0.054651">
<path opacity="0.054651" d="M423.741 416.089L463.581 409.826L463.318 409.189L419.821 297.275L423.741 416.089ZM461.163 408.864L425.578 414.423L422.19 308.393L461.163 408.864Z" fill="#EDD999"/>
</g>
<g opacity="0.341">
<path opacity="0.341" d="M705.917 354.058L661.965 260.609L634.602 314.933L635.206 315.174L705.917 354.058ZM661.87 264.78L702.273 350.371L636.75 314.509L661.87 264.78Z" fill="#EDD999"/>
</g>
<g opacity="0.4395">
<path opacity="0.4395" d="M660.913 263.441L765.575 248.544L652.972 217.558L660.913 263.441ZM759.16 248.177L662.708 261.918L655.269 219.697L759.16 248.177Z" fill="#EDD999"/>
</g>
<g opacity="0.8687">
<path opacity="0.8687" d="M985.486 407.021L1079.59 401.297L1079.16 400.484L994.975 275.427L985.486 407.021ZM1076.74 400.271L987.455 405.673L996.525 280.891L1076.74 400.271Z" fill="#EDD999"/>
</g>
<g opacity="0.6378">
<path opacity="0.6378" d="M362.242 786.174L350.011 741.887L335.464 752.403L362.242 786.174ZM349 744.574L358.089 778.076L337.918 752.473L349 744.574Z" fill="#EDD999"/>
</g>
<g opacity="0.6534">
<path opacity="0.6534" d="M104.24 750.205L267.453 749.645L99.7633 690.943L104.24 750.205ZM259.74 748.336L105.993 748.825L101.588 693.16L259.74 748.336Z" fill="#EDD999"/>
</g>
<g opacity="0.4075">
<path opacity="0.4075" d="M296.941 751.091L337.278 753.123L352.423 742.099L296.941 751.091ZM336.32 751.783L309.286 750.407L346.589 744.36L336.32 751.783Z" fill="#EDD999"/>
</g>
<g opacity="0.1929">
<path opacity="0.1929" d="M433.382 631.419L576.424 583.734L449.711 542.554L433.382 631.419ZM572.122 583.834L435.602 629.212L451.147 544.564L572.122 583.834Z" fill="#EDD999"/>
</g>
<g opacity="0.1666">
<path opacity="0.1666" d="M94.7425 606.639L86.5026 561.01L75.738 597.802L94.7425 606.639ZM86.0957 569.318L92.355 604.038L77.8862 597.378L86.0957 569.318Z" fill="#EDD999"/>
</g>
<g opacity="0.3403">
<path opacity="0.3403" d="M761.619 248.995L892.119 263.393L837.487 233.354L752.397 220.556L761.619 248.995ZM885.303 261.322L763.073 247.869L754.821 222.265L836.894 234.61L885.303 261.322Z" fill="#EDD999"/>
</g>
<g opacity="0.9176">
<path opacity="0.9176" d="M833.433 457.834L798.846 410.782L797.129 411.271L817.893 451.76L833.433 457.834ZM803.872 420.506L828.975 454.622L819.694 450.985L803.872 420.506Z" fill="#EDD999"/>
</g>
<g opacity="0.1984">
<path opacity="0.1984" d="M798.99 412.598L797.38 351.225L701.466 351.595L798.99 412.598ZM795.453 352.43L796.943 409.599L706.295 352.77L795.453 352.43Z" fill="#EDD999"/>
</g>
<g opacity="0.2669">
<path opacity="0.2669" d="M701.872 354.048L813.876 299.452L761.948 247.102L701.872 354.048ZM811.291 299.063L706.102 350.35L762.529 249.73L811.291 299.063Z" fill="#EDD999"/>
</g>
<g opacity="0.7806">
<path opacity="0.7806" d="M421.82 305.049L425.648 208.175L324.726 201.066L325.767 202.119L421.82 305.049ZM423.763 209.237L420.15 300.762L328.31 202.651L423.763 209.237Z" fill="#EDD999"/>
</g>
<g opacity="0.9353">
<path opacity="0.9353" d="M424.248 210.654L452.324 175.419L413.549 169.587L424.248 210.654ZM449.362 176.319L425.164 206.757L415.972 171.297L449.362 176.319Z" fill="#EDD999"/>
</g>
<g opacity="0.4956">
<path opacity="0.4956" d="M96.5263 748.896L248.736 771.342L265.161 748.254L96.5263 748.896ZM247.563 769.97L113.706 750.135L262.073 749.583L247.563 769.97Z" fill="#EDD999"/>
</g>
<g opacity="0.6271">
<path opacity="0.6271" d="M871.425 570.115L850.6 500.621L769.85 524.495L871.425 570.115ZM849.152 502.496L868.606 567.449L773.811 524.792L849.152 502.496Z" fill="#EDD999"/>
</g>
<g opacity="0.7557">
<path opacity="0.7557" d="M771.5 526.537L819.95 450.873L735.728 438.952L771.5 526.537ZM817.419 451.837L771.985 522.574L738.625 440.583L817.419 451.837Z" fill="#EDD999"/>
</g>
<g opacity="0.3556">
<path opacity="0.3556" d="M461.912 410.92L579.366 306.177L419.731 302.194L461.912 410.92ZM575.632 307.409L462.749 408.056L422.28 303.474L575.632 307.409Z" fill="#EDD999"/>
</g>
<g opacity="0.058722">
<path opacity="0.058722" d="M630.378 443.134L636.403 314.158L576.051 305.977L630.378 443.134ZM634.518 315.22L628.888 434.391L578.689 307.719L634.518 315.22Z" fill="#EDD999"/>
</g>
<g opacity="0.5999">
<path opacity="0.5999" d="M449.645 545.084L521.025 495.587L448.43 511.571L449.645 545.084ZM514.12 498.435L451.47 541.921L450.459 512.325L514.12 498.435Z" fill="#EDD999"/>
</g>
<g opacity="0.7881">
<path opacity="0.7881" d="M448.347 544.143L551.759 545.05L518.016 495.883L448.347 544.143ZM548.779 543.705L452.769 542.865L517.388 498.031L548.779 543.705Z" fill="#EDD999"/>
</g>
<g opacity="0.397">
<path opacity="0.397" d="M441.783 514.31L518.417 497.588L525.418 479.809L441.783 514.31ZM516.687 496.581L456.634 509.668L522.127 482.602L516.687 496.581Z" fill="#EDD999"/>
</g>
<g opacity="0.1352">
<path opacity="0.1352" d="M616.125 538.739L523.137 479.914L516.477 497.296L616.125 538.739ZM524.232 482.32L601.261 531.123L518.667 496.728L524.232 482.32Z" fill="#EDD999"/>
</g>
<g opacity="0.302">
<path opacity="0.302" d="M63.9682 638.03L73.7397 638.453L66.7745 628.438L63.9682 638.03ZM70.5443 637.076L66.3257 636.89L67.5823 632.595L70.5443 637.076Z" fill="#EDD999"/>
</g>
<g opacity="0.5835">
<path opacity="0.5835" d="M140.574 875.838L184.926 814.953L114.945 829.686L140.574 875.838ZM181.156 817.076L140.85 872.592L117.447 830.361L181.156 817.076Z" fill="#EDD999"/>
</g>
<g opacity="0.7245">
<path opacity="0.7245" d="M347.66 743.775L442.772 750.758L397.205 702.802L347.66 743.775ZM438.972 749.14L351.352 742.686L397.049 704.871L438.972 749.14Z" fill="#EDD999"/>
</g>
<g opacity="0.6437">
<path opacity="0.6437" d="M442.054 752.442L437.625 715.308L394.62 702.412L442.054 752.442ZM435.824 716.083L439.474 747.421L399.419 705.226L435.824 716.083Z" fill="#EDD999"/>
</g>
<g opacity="0.593">
<path opacity="0.593" d="M138.9 381.913L164.379 382.458L147.151 353.71L138.9 381.913ZM161.399 381.113L141.299 380.63L147.875 358.154L161.399 381.113Z" fill="#EDD999"/>
</g>
<g opacity="0.4081">
<path opacity="0.4081" d="M90.476 605.847L278.726 609.651L206.004 556.116L205.233 556.448L90.476 605.847ZM274.411 608.255L96.8787 604.718L205.975 557.756L274.411 608.255Z" fill="#EDD999"/>
</g>
<g opacity="0.9412">
<path opacity="0.9412" d="M230.92 491.708L292.289 422.621L136.322 430.698L230.92 491.708ZM288.687 424.172L230.388 489.685L140.72 431.808L288.687 424.172Z" fill="#EDD999"/>
</g>
<g opacity="0.2546">
<path opacity="0.2546" d="M920.939 455.452L987.975 406.199L866.869 355.849L920.939 455.452ZM985.007 406.351L921.693 452.876L870.549 358.644L985.007 406.351Z" fill="#EDD999"/>
</g>
<g opacity="0.5939">
<path opacity="0.5939" d="M794.806 352.333L870.501 358.039L828.536 313.913L794.806 352.333ZM866.701 356.421L798.067 351.179L828.727 316.333L866.701 356.421Z" fill="#EDD999"/>
</g>
<g opacity="0.7674">
<path opacity="0.7674" d="M1156.28 305.219L1194 286.979L1172.24 283.706L1156.28 305.219ZM1189.32 287.619L1161.54 301.078L1173.16 285.189L1189.32 287.619Z" fill="#EDD999"/>
</g>
<g opacity="0.2255">
<path opacity="0.2255" d="M262.33 749.473L304.474 751.478L286.403 708.704L262.33 749.473ZM301.751 750.022L264.945 748.222L285.96 712.523L301.751 750.022Z" fill="#EDD999"/>
</g>
<g opacity="0.1251">
<path opacity="0.1251" d="M302.409 751.615L351.746 743.642L284.47 709.16L302.409 751.615ZM347.222 742.961L303.774 750.027L288.024 712.385L347.222 742.961Z" fill="#EDD999"/>
</g>
<g opacity="0.2913">
<path opacity="0.2913" d="M349.598 744.066L399.185 702.949L283.531 710.065L349.598 744.066ZM394.895 704.546L349.239 742.218L288.617 711.129L394.895 704.546Z" fill="#EDD999"/>
</g>
<g opacity="0.7893">
<path opacity="0.7893" d="M285.547 714.701L330.353 603.067L275.487 608.415L285.547 714.701ZM327.869 604.636L286.774 706.666L277.648 609.488L327.869 604.636Z" fill="#EDD999"/>
</g>
<g opacity="0.7612">
<path opacity="0.7612" d="M105.054 819.678L105.647 818.422L18.7678 791.753L16.5898 799.198L105.054 819.678ZM20.4612 793.652L87.5396 814.204L19.079 798.377L20.4612 793.652Z" fill="#EDD999"/>
</g>
<g opacity="0.3186">
<path opacity="0.3186" d="M48.5955 690.57L102.144 692.795L72.213 635.981L57.146 662.113L48.5955 690.57ZM99.4216 691.339L50.9949 689.286L58.8694 662.372L72.0694 639.547L99.4216 691.339Z" fill="#EDD999"/>
</g>
<g opacity="0.769">
<path opacity="0.769" d="M181.107 816.47L276.806 826.829L248.808 769.559L181.107 816.47ZM273.952 825.055L185.015 815.414L247.706 771.785L273.952 825.055Z" fill="#EDD999"/>
</g>
<g opacity="0.7914">
<path opacity="0.7914" d="M275.813 826.382L364.942 784.636L360.31 781.25L274.772 825.328L275.813 826.382ZM362.057 784.502L310.699 808.612L360.196 783.175L362.057 784.502Z" fill="#EDD999"/>
</g>
<g opacity="0.7235">
<path opacity="0.7235" d="M450.078 733.472L491.103 713.935L435.256 714.951L450.078 733.472ZM484.616 715.351L450.665 731.468L438.278 716.153L484.616 715.351Z" fill="#EDD999"/>
</g>
<g opacity="0.1424">
<path opacity="0.1424" d="M222.272 319.872L185.609 255.32L174.215 261.976L169.441 278.297L222.272 319.872ZM184.765 257.435L216.539 313.33L171.415 277.697L175.855 262.522L184.765 257.435Z" fill="#EDD999"/>
</g>
<g opacity="0.3504">
<path opacity="0.3504" d="M849.026 502.925L924.104 453.088L842.814 463.43L849.026 502.925ZM918.311 455.206L850.51 500.159L844.932 464.645L918.311 455.206Z" fill="#EDD999"/>
</g>
<g opacity="0.5955">
<path opacity="0.5955" d="M843.772 464.769L921.537 454.944L921.226 453.701L828.854 455.8L843.772 464.769ZM908.672 455.101L844.19 463.338L833.509 456.799L908.672 455.101Z" fill="#EDD999"/>
</g>
<g opacity="0.8014">
<path opacity="0.8014" d="M572.442 306.779L637.319 315.641L623.64 300.132L572.442 306.779ZM633.603 313.737L582.34 306.773L622.79 301.499L633.603 313.737Z" fill="#EDD999"/>
</g>
<g opacity="0.38">
<path opacity="0.38" d="M635.817 316.163L665.131 258.247L622.353 300.686L635.817 316.163ZM658.489 267.112L635.105 313.216L624.292 300.978L658.489 267.112Z" fill="#EDD999"/>
</g>
<g opacity="0.9285">
<path opacity="0.9285" d="M451.511 547.159L450.087 508.981L439.083 526.606L451.511 547.159ZM448.543 515.026L449.561 539.99L441.578 526.533L448.543 515.026Z" fill="#EDD999"/>
</g>
<g opacity="0.9356">
<path opacity="0.9356" d="M329.76 604.324L451.613 543.736L440.579 525.337L328.461 603.381L329.76 604.324ZM449.243 543.38L337.934 598.678L439.909 527.627L449.243 543.38Z" fill="#EDD999"/>
</g>
</g>
<g opacity="0.25">
<g opacity="0.2443">
<path opacity="0.2443" d="M867.997 797.436L777.316 742.517L792.078 824.149L867.997 797.436ZM779.577 745.845L864.148 797.102L793.248 821.966L779.577 745.845Z" fill="#EDD999"/>
</g>
<g opacity="0.5038">
<path opacity="0.5038" d="M738.065 980.858L629.272 1041.3L630.741 1041.97L760.401 1108.76L738.065 980.858ZM632.796 1041.34L736.892 983.469L758.215 1106.04L632.796 1041.34Z" fill="#EDD999"/>
</g>
<g opacity="0.8777">
<path opacity="0.8777" d="M761.068 1107.64L630.269 1040.03L629.637 1169.71L690.21 1144.83L761.068 1107.64ZM631.881 1042.78L757.544 1107.59L689.404 1143.46L631.3 1167.32L631.881 1042.78Z" fill="#EDD999"/>
</g>
<g opacity="0.5761">
<path opacity="0.5761" d="M657.323 453.153L656.023 451.984L620.413 497.049L622.312 512.233L657.323 453.153ZM622.046 497.655L649.439 462.99L623.261 507.373L622.046 497.655Z" fill="#EDD999"/>
</g>
<g opacity="0.1811">
<path opacity="0.1811" d="M573.663 434.09L523.149 345.644L489.065 418.604L573.663 434.09ZM523.524 349.108L570.654 431.707L491.619 417.343L523.524 349.108Z" fill="#EDD999"/>
</g>
<g opacity="0.6975">
<path opacity="0.6975" d="M1193.54 618.173L1192.48 617.544L1115.89 579.398L1158.75 654.171L1193.54 618.173ZM1119.79 583.332L1190.83 618.648L1159.02 651.718L1119.79 583.332Z" fill="#EDD999"/>
</g>
<g opacity="0.054651">
<path opacity="0.054651" d="M793.973 823.158L766.926 798.295L766.428 798.925L677.565 907.582L793.973 823.158ZM767.229 800.724L791.352 822.957L687.412 898.216L767.229 800.724Z" fill="#EDD999"/>
</g>
<g opacity="0.341">
<path opacity="0.341" d="M584.789 659.189L514.573 755.505L583.02 738.246L582.944 737.638L584.789 659.189ZM518.78 752.712L583.016 664.388L581.476 736.965L518.78 752.712Z" fill="#EDD999"/>
</g>
<g opacity="0.4395">
<path opacity="0.4395" d="M517.945 754.332L448.442 687.947L476.347 791.639L517.945 754.332ZM451.426 692.894L515.489 754.064L477.279 788.489L451.426 692.894Z" fill="#EDD999"/>
</g>
<g opacity="0.8687">
<path opacity="0.8687" d="M491.61 418.197L436.765 353.241L436.183 354.119L355.459 501.578L491.61 418.197ZM437.229 356.03L489.238 417.681L360.098 496.693L437.229 356.03Z" fill="#EDD999"/>
</g>
<g opacity="0.6378">
<path opacity="0.6378" d="M1195.05 614.145L1157.28 653.497L1175.36 656.926L1195.05 614.145ZM1160.49 652.392L1189.15 622.743L1174.15 655.082L1160.49 652.392Z" fill="#EDD999"/>
</g>
<g opacity="0.6534">
<path opacity="0.6534" d="M1293.91 827.686L1208.13 708.602L1237.17 871.641L1293.91 827.686ZM1210.85 715.147L1291.62 827.351L1238.42 868.783L1210.85 715.147Z" fill="#EDD999"/>
</g>
<g opacity="0.4075">
<path opacity="0.4075" d="M1194.17 686.023L1175.14 655.103L1156.24 651.584L1194.17 686.023ZM1174.3 656.724L1187.04 677.457L1161.54 654.303L1174.3 656.724Z" fill="#EDD999"/>
</g>
<g opacity="0.1929">
<path opacity="0.1929" d="M1003.62 668.296L881.386 596.324L906.495 717.341L1003.62 668.296ZM883.732 599.404L1000.26 668.186L907.749 714.91L883.732 599.404Z" fill="#EDD999"/>
</g>
<g opacity="0.1666">
<path opacity="0.1666" d="M1155.74 933.183L1114.55 970.535L1156.85 953.159L1155.74 933.183ZM1123.04 965.129L1154.39 936.716L1155.31 951.878L1123.04 965.129Z" fill="#EDD999"/>
</g>
<g opacity="0.3403">
<path opacity="0.3403" d="M450.957 690.532L397.169 585.126L395.748 645.734L427.419 716.803L450.957 690.532ZM398.663 591.536L449.075 690.241L427.858 713.856L397.31 645.306L398.663 591.536Z" fill="#EDD999"/>
</g>
<g opacity="0.9176">
<path opacity="0.9176" d="M621.667 494.619L592.817 552.232L594.201 553.153L623.726 510.163L621.667 494.619ZM599.887 541.878L620.793 500.086L622.012 509.376L599.887 541.878Z" fill="#EDD999"/>
</g>
<g opacity="0.1984">
<path opacity="0.1984" d="M594.552 550.881L534.206 594.185L584.658 664.138L594.552 550.881ZM536.413 594.769L592.632 554.436L583.307 659.797L536.413 594.769Z" fill="#EDD999"/>
</g>
<g opacity="0.2669">
<path opacity="0.2669" d="M586.891 662.158L473.976 617.648L448.898 691.592L586.891 662.158ZM474.938 619.807L580.995 661.599L451.215 689.363L474.938 619.807Z" fill="#EDD999"/>
</g>
<g opacity="0.7806">
<path opacity="0.7806" d="M684.272 900.783L585.692 964.475L631.303 1043.23L631.809 1041.74L684.272 900.783ZM587.735 965.126L680.87 904.948L631.012 1039.52L587.735 965.126Z" fill="#EDD999"/>
</g>
<g opacity="0.9353">
<path opacity="0.9353" d="M588.896 963.798L539.107 967.433L553.539 999.819L588.896 963.798ZM541.551 968.984L584.532 965.804L553.978 996.871L541.551 968.984Z" fill="#EDD999"/>
</g>
<g opacity="0.4956">
<path opacity="0.4956" d="M1296.63 834.231L1239.53 707.409L1207.94 711.234L1296.63 834.231ZM1238.78 709.21L1288.9 820.805L1210.88 712.582L1238.78 709.21Z" fill="#EDD999"/>
</g>
<g opacity="0.6271">
<path opacity="0.6271" d="M713.77 389.738L655.361 452.682L721.328 495.402L713.77 389.738ZM657.986 452.455L712.584 393.631L719.555 492.299L657.986 452.455Z" fill="#EDD999"/>
</g>
<g opacity="0.7557">
<path opacity="0.7557" d="M722.501 492.792L621.767 509.264L653.86 579.095L722.501 492.792ZM624.05 510.454L718.297 495.157L653.974 575.855L624.05 510.454Z" fill="#EDD999"/>
</g>
<g opacity="0.3556">
<path opacity="0.3556" d="M768.888 798.766L603.132 784.688L682.516 904.272L768.888 798.766ZM606.31 786.576L765.596 800.119L682.461 901.527L606.31 786.576Z" fill="#EDD999"/>
</g>
<g opacity="0.058722">
<path opacity="0.058722" d="M713.039 653.338L581.307 737.459L604.664 787.251L713.039 653.338ZM583.349 738.11L705.1 660.431L605.023 784.124L583.349 738.11Z" fill="#EDD999"/>
</g>
<g opacity="0.5999">
<path opacity="0.5999" d="M909.053 715.653L822.434 697.379L876.276 739.546L909.053 715.653ZM828.879 700.479L904.947 716.488L875.968 737.543L828.879 700.479Z" fill="#EDD999"/>
</g>
<g opacity="0.7881">
<path opacity="0.7881" d="M908.791 717.25L855.698 640.932L824.299 699.38L908.791 717.25ZM855.913 644.037L905.208 714.89L826.768 698.365L855.913 644.037Z" fill="#EDD999"/>
</g>
<g opacity="0.397">
<path opacity="0.397" d="M882.476 742.533L825.789 697.916L804.408 704.995L882.476 742.533ZM825.688 699.873L870.093 734.847L808.911 705.487L825.688 699.873Z" fill="#EDD999"/>
</g>
<g opacity="0.1352">
<path opacity="0.1352" d="M815.796 598.147L805.704 706.591L826.511 699.535L815.796 598.147ZM807.531 704.137L815.964 614.255L824.801 698.321L807.531 704.137Z" fill="#EDD999"/>
</g>
<g opacity="0.302">
<path opacity="0.302" d="M1203.1 934.161L1198.42 926.718L1192.07 938.691L1203.1 934.161ZM1198.72 930.002L1200.74 933.218L1195.8 935.246L1198.72 930.002Z" fill="#EDD999"/>
</g>
<g opacity="0.5835">
<path opacity="0.5835" d="M1400.19 714.855L1316.33 724.183L1367.56 765.294L1400.19 714.855ZM1320.42 725.485L1396.81 716.882L1366.93 763L1320.42 725.485Z" fill="#EDD999"/>
</g>
<g opacity="0.7245">
<path opacity="0.7245" d="M1160.4 653.922L1117.69 579.509L1093.67 645.781L1160.4 653.922ZM1118.06 583.401L1157.38 651.967L1095.82 644.474L1118.06 583.401Z" fill="#EDD999"/>
</g>
<g opacity="0.6437">
<path opacity="0.6437" d="M1119.75 578.877L1085.04 607.608L1094.64 647.939L1119.75 578.877ZM1086.75 608.394L1116.09 584.212L1094.94 642.494L1086.75 608.394Z" fill="#EDD999"/>
</g>
<g opacity="0.593">
<path opacity="0.593" d="M908.633 1055.11L895.872 1036.09L876.207 1068.43L908.633 1055.11ZM896.087 1039.19L906.101 1054.24L880.259 1064.85L896.087 1039.19Z" fill="#EDD999"/>
</g>
<g opacity="0.4081">
<path opacity="0.4081" d="M1157.18 936.849L1062.67 796.443L1047.27 886.42L1048 886.757L1157.18 936.849ZM1063.53 800.56L1152.71 932.937L1048.92 885.317L1063.53 800.56Z" fill="#EDD999"/>
</g>
<g opacity="0.9412">
<path opacity="0.9412" d="M970.048 912.392L869.125 914.893L958.618 1023.51L970.048 912.392ZM872.552 916.465L968.309 914.17L957.428 1019.53L872.552 916.465Z" fill="#EDD999"/>
</g>
<g opacity="0.2546">
<path opacity="0.2546" d="M573.6 432.2L489.492 416.939L502.531 540.147L573.6 432.2ZM491.193 419.008L570.637 433.417L503.396 535.535L491.193 419.008Z" fill="#EDD999"/>
</g>
<g opacity="0.5939">
<path opacity="0.5939" d="M536.654 595.308L502.817 535.985L480.737 596.99L536.654 595.308ZM503.189 539.876L533.801 593.713L483.05 595.189L503.189 539.876Z" fill="#EDD999"/>
</g>
<g opacity="0.7674">
<path opacity="0.7674" d="M300.935 363.057L263.053 347.965L271.151 366.137L300.935 363.057ZM266.138 350.955L294.06 362.049L272.151 364.449L266.138 350.955Z" fill="#EDD999"/>
</g>
<g opacity="0.2255">
<path opacity="0.2255" d="M1210.63 712.47L1190.62 680.245L1157.42 722.834L1210.63 712.47ZM1190.59 683.237L1208.02 711.414L1161.45 720.536L1190.59 683.237Z" fill="#EDD999"/>
</g>
<g opacity="0.1251">
<path opacity="0.1251" d="M1191.84 681.662L1158.13 651.022L1158.88 723.935L1191.84 681.662ZM1159.81 654.8L1189.54 681.753L1160.24 719.119L1159.81 654.8Z" fill="#EDD999"/>
</g>
<g opacity="0.2913">
<path opacity="0.2913" d="M1159.67 652.303L1092.79 644.229L1160.27 724.001L1159.67 652.303ZM1096.62 646.273L1158.02 653.834L1158.68 719.548L1096.62 646.273Z" fill="#EDD999"/>
</g>
<g opacity="0.7893">
<path opacity="0.7893" d="M1163.84 719.342L1029.15 763.172L1063.13 799.661L1163.84 719.342ZM1032.01 763.913L1155.19 723.96L1063.07 797.344L1032.01 763.913Z" fill="#EDD999"/>
</g>
<g opacity="0.7612">
<path opacity="0.7612" d="M1362.75 779.403L1361.19 779.832L1379.96 861.731L1388.52 858.215L1362.75 779.403ZM1380.97 859.188L1366.44 795.981L1386.4 856.957L1380.97 859.188Z" fill="#EDD999"/>
</g>
<g opacity="0.3186">
<path opacity="0.3186" d="M1263.51 909.35L1237.77 868.626L1196.76 929.533L1230.68 922.625L1263.51 909.35ZM1237.74 871.618L1260.98 908.475L1230.03 921.185L1200.39 927.19L1237.74 871.618Z" fill="#EDD999"/>
</g>
<g opacity="0.769">
<path opacity="0.769" d="M1319.84 725.936L1280.2 648.776L1237.72 708.581L1319.84 725.936ZM1279.92 652.083L1316.74 723.801L1240.51 707.859L1279.92 652.083Z" fill="#EDD999"/>
</g>
<g opacity="0.7914">
<path opacity="0.7914" d="M1280.27 649.811L1192.11 613.225L1191.15 618.94L1279.76 651.296L1280.27 649.811ZM1193.48 615.429L1244.34 636.473L1193.13 617.702L1193.48 615.429Z" fill="#EDD999"/>
</g>
<g opacity="0.7235">
<path opacity="0.7235" d="M1096.64 586.025L1055.75 569.406L1085.92 609.587L1096.64 586.025ZM1060.54 573.182L1094.34 586.972L1085.54 606.551L1060.54 573.182Z" fill="#EDD999"/>
</g>
<g opacity="0.1424">
<path opacity="0.1424" d="M803.247 1036.67L758.034 1107.82L770.619 1111.59L789.384 1103.88L803.247 1036.67ZM760.583 1106.98L799.718 1045.36L787.755 1102.85L770.307 1110.01L760.583 1106.98Z" fill="#EDD999"/>
</g>
<g opacity="0.3504">
<path opacity="0.3504" d="M658.48 452.252L569.59 431.505L622.347 483.909L658.48 452.252ZM574.726 434.291L654.947 453.064L622.453 481.524L574.726 434.291Z" fill="#EDD999"/>
</g>
<g opacity="0.5955">
<path opacity="0.5955" d="M623.183 482.289L572.781 432.111L571.705 433.192L622.03 499.365L623.183 482.289ZM579.656 441.42L621.537 482.965L620.595 495.272L579.656 441.42Z" fill="#EDD999"/>
</g>
<g opacity="0.8014">
<path opacity="0.8014" d="M607.348 789.342L582.307 735.771L573.988 756.43L607.348 789.342ZM582.349 739.798L602.174 782.101L575.794 756.113L582.349 739.798Z" fill="#EDD999"/>
</g>
<g opacity="0.38">
<path opacity="0.38" d="M583.611 736.513L510.563 754.81L575.211 756.991L583.611 736.513ZM522.87 753.586L581.045 739.057L574.49 755.372L522.87 753.586Z" fill="#EDD999"/>
</g>
<g opacity="0.9285">
<path opacity="0.9285" d="M910.147 712.863L872.828 740.111L896.146 736.067L910.147 712.863ZM879.661 737.091L904.018 719.211L894.77 734.291L879.661 737.091Z" fill="#EDD999"/>
</g>
<g opacity="0.9356">
<path opacity="0.9356" d="M1030.71 762.743L906.681 715.136L894.099 735.843L1030.45 764.34L1030.71 762.743ZM907.563 717.115L1020.82 760.635L896.733 734.761L907.563 717.115Z" fill="#EDD999"/>
</g>
</g>
<g opacity="0.25">
<g opacity="0.2443">
<path opacity="0.2443" d="M1380.99 292.826L1468.34 341.107L1414.33 274.224L1380.99 292.826ZM1465.09 338.313L1383.6 293.255L1414.78 275.949L1465.09 338.313Z" fill="#EDD999"/>
</g>
<g opacity="0.5038">
<path opacity="0.5038" d="M1362.66 149.177L1398.31 104.529L1397.01 103.922L1278.54 44.415L1362.66 149.177ZM1396.06 104.351L1361.98 147.105L1281.41 46.713L1396.06 104.351Z" fill="#EDD999"/>
</g>
<g opacity="0.8777">
<path opacity="0.8777" d="M1278.73 45.3016L1398.37 105.512L1327.78 0.246081L1303.14 17.984L1278.73 45.3016ZM1395.85 103.219L1280.98 45.4795L1304.4 19.1306L1328.04 2.11569L1395.85 103.219Z" fill="#EDD999"/>
</g>
<g opacity="0.5761">
<path opacity="0.5761" d="M1702.54 580.942L1704 581.944L1701.82 546.801L1692.31 534.395L1702.54 580.942ZM1700.46 546.242L1702.13 573.275L1694.37 538.302L1700.46 546.242Z" fill="#EDD999"/>
</g>
<g opacity="0.1811">
<path opacity="0.1811" d="M1765.82 599.823L1846.15 673.693L1827.74 615.838L1765.82 599.823ZM1844.01 670.865L1769.03 601.88L1826.82 616.758L1844.01 670.865Z" fill="#EDD999"/>
</g>
<g opacity="0.6975">
<path opacity="0.6975" d="M1273.47 425.142L1274.48 425.696L1343.74 459.785L1275.74 397.328L1273.47 425.142ZM1339.13 456.432L1274.92 424.867L1276.91 399.308L1339.13 456.432Z" fill="#EDD999"/>
</g>
<g opacity="0.054651">
<path opacity="0.054651" d="M1413.67 274.951L1444.37 296.239L1444.34 295.747L1440.99 211.136L1413.67 274.951ZM1442.85 294.254L1415.44 275.22L1439.9 218.34L1442.85 294.254Z" fill="#EDD999"/>
</g>
<g opacity="0.341">
<path opacity="0.341" d="M1635.57 416.597L1627.21 341.248L1593.41 352.478L1593.8 352.974L1635.57 416.597ZM1626.08 343.344L1633.85 412.448L1595.09 353.581L1626.08 343.344Z" fill="#EDD999"/>
</g>
<g opacity="0.4395">
<path opacity="0.4395" d="M1625.72 342.063L1705.96 398.792L1631.58 313.462L1625.72 342.063ZM1701.37 394.654L1627.42 342.38L1632.71 315.982L1701.37 394.654Z" fill="#EDD999"/>
</g>
<g opacity="0.8687">
<path opacity="0.8687" d="M1826.36 616.065L1896.56 671.037L1896.45 670.348L1866.72 553.9L1826.36 616.065ZM1894.74 668.754L1828.14 616.58L1866.47 557.677L1894.74 668.754Z" fill="#EDD999"/>
</g>
<g opacity="0.6378">
<path opacity="0.6378" d="M1274.71 428.35L1277.03 397.933L1263.73 394.413L1274.71 428.35ZM1275.61 398.7L1273.74 421.608L1265.51 395.96L1275.61 398.7Z" fill="#EDD999"/>
</g>
<g opacity="0.6534">
<path opacity="0.6534" d="M1095.37 250.94L1214.75 351.122L1107.16 217.558L1095.37 250.94ZM1209.45 345.697L1097 251.306L1107.93 219.828L1209.45 345.697Z" fill="#EDD999"/>
</g>
<g opacity="0.4075">
<path opacity="0.4075" d="M1235.92 370.022L1264.87 395.903L1278.74 399.528L1235.92 370.022ZM1264.52 394.621L1245.12 377.268L1273.9 397.105L1264.52 394.621Z" fill="#EDD999"/>
</g>
<g opacity="0.1929">
<path opacity="0.1929" d="M1366 392.167L1482.62 455.578L1400.51 356.294L1366 392.167ZM1479.45 452.981L1368.19 392.393L1401.05 358.217L1479.45 452.981Z" fill="#EDD999"/>
</g>
<g opacity="0.1666">
<path opacity="0.1666" d="M1124.91 170.9L1130.48 142.247L1113.27 154.634L1124.91 170.9ZM1128.07 146.29L1123.83 168.086L1114.95 155.738L1128.07 146.29Z" fill="#EDD999"/>
</g>
<g opacity="0.3403">
<path opacity="0.3403" d="M1702.96 396.59L1794.64 484.364L1762.36 435.21L1703.45 376.216L1702.96 396.59ZM1790.19 479.098L1704.31 396.903L1704.79 378.592L1761.61 435.494L1790.19 479.098Z" fill="#EDD999"/>
</g>
<g opacity="0.9176">
<path opacity="0.9176" d="M1702.36 548.723L1689.05 503.116L1687.67 502.312L1692.55 536.018L1702.36 548.723ZM1690.25 511.236L1699.92 544.319L1694.07 536.726L1690.25 511.236Z" fill="#EDD999"/>
</g>
<g opacity="0.1984">
<path opacity="0.1984" d="M1688.69 504.143L1703.11 471.435L1632.95 412.583L1688.69 504.143ZM1701.4 470.872L1687.96 501.334L1636.18 416.163L1701.4 470.872Z" fill="#EDD999"/>
</g>
<g opacity="0.2669">
<path opacity="0.2669" d="M1632.62 414.102L1728.32 454.835L1703.68 395.815L1632.62 414.102ZM1726.53 453.043L1636.65 414.795L1703.44 397.531L1726.53 453.043Z" fill="#EDD999"/>
</g>
<g opacity="0.7806">
<path opacity="0.7806" d="M1440.48 216.383L1467.89 168.676L1395.97 102.876L1396.46 104.061L1440.48 216.383ZM1466.24 168.065L1440.35 213.14L1398.18 105.902L1466.24 168.065Z" fill="#EDD999"/>
</g>
<g opacity="0.9353">
<path opacity="0.9353" d="M1466.24 169.097L1495.7 168.17L1468.85 141.287L1466.24 169.097ZM1493.31 166.812L1467.89 167.646L1470.19 143.663L1493.31 166.812Z" fill="#EDD999"/>
</g>
<g opacity="0.4956">
<path opacity="0.4956" d="M1090.07 245.515L1195.56 350.812L1213.43 348.992L1090.07 245.515ZM1195.05 349.381L1102.3 256.731L1210.83 347.778L1195.05 349.381Z" fill="#EDD999"/>
</g>
<g opacity="0.6271">
<path opacity="0.6271" d="M1701.59 630.137L1704.03 581.404L1638.98 544.033L1701.59 630.137ZM1702.5 581.481L1700.21 627.024L1641.79 546.625L1702.5 581.481Z" fill="#EDD999"/>
</g>
<g opacity="0.7557">
<path opacity="0.7557" d="M1639.66 546.105L1694.28 536.827L1635.78 478.821L1639.66 546.105ZM1692.19 535.767L1641.02 544.355L1637.48 481.447L1692.19 535.767Z" fill="#EDD999"/>
</g>
<g opacity="0.3556">
<path opacity="0.3556" d="M1442.87 295.777L1555.29 313.95L1439.68 213.623L1442.87 295.777ZM1552.25 312.288L1444.21 294.813L1441.22 215.854L1552.25 312.288Z" fill="#EDD999"/>
</g>
<g opacity="0.058722">
<path opacity="0.058722" d="M1557.76 416.13L1594.93 353.185L1552.92 311.805L1557.76 416.13ZM1593.28 352.573L1558.89 410.694L1554.4 314.33L1593.28 352.573Z" fill="#EDD999"/>
</g>
<g opacity="0.5999">
<path opacity="0.5999" d="M1399.82 357.561L1464.54 375.922L1407.45 339.494L1399.82 357.561ZM1458.77 373.143L1401.96 357.05L1408.74 341.133L1458.77 373.143Z" fill="#EDD999"/>
</g>
<g opacity="0.7881">
<path opacity="0.7881" d="M1399.11 356.276L1474.43 420.403L1462.27 374.222L1399.11 356.276ZM1472.59 417.873L1402.67 358.337L1461.26 374.945L1472.59 417.873Z" fill="#EDD999"/>
</g>
<g opacity="0.397">
<path opacity="0.397" d="M1401.9 336.816L1462.13 375.349L1471.76 370.471L1401.9 336.816ZM1461.12 373.764L1413.92 343.56L1468.65 369.888L1461.12 373.764Z" fill="#EDD999"/>
</g>
<g opacity="0.1352">
<path opacity="0.1352" d="M1523.05 456.764L1470.07 369.122L1460.79 374.005L1523.05 456.764ZM1470.26 371.04L1514.13 443.679L1462.53 375.06L1470.26 371.04Z" fill="#EDD999"/>
</g>
<g opacity="0.302">
<path opacity="0.302" d="M1094.45 168.178L1101.48 174.412L1098.94 164.949L1094.45 168.178ZM1099.5 171.733L1096.46 169.04L1098.47 167.594L1099.5 171.733Z" fill="#EDD999"/>
</g>
<g opacity="0.5835">
<path opacity="0.5835" d="M1089.99 338.233L1137.86 334.069L1083 298.605L1089.99 338.233ZM1134.57 332.846L1091.02 336.724L1084.65 300.493L1134.57 332.846Z" fill="#EDD999"/>
</g>
<g opacity="0.7245">
<path opacity="0.7245" d="M1274.83 397.461L1342.54 459.619L1321.44 406.786L1274.83 397.461ZM1340.18 456.444L1277.81 399.171L1320.8 407.759L1340.18 456.444Z" fill="#EDD999"/>
</g>
<g opacity="0.6437">
<path opacity="0.6437" d="M1341.59 460.049L1347.79 438.132L1319.65 404.994L1341.59 460.049ZM1346.28 437.424L1340.98 455.866L1322.44 409.402L1346.28 437.424Z" fill="#EDD999"/>
</g>
<g opacity="0.593">
<path opacity="0.593" d="M1214.26 81.9471L1232.74 97.9127L1227.46 72.4515L1214.26 81.9471ZM1230.9 95.3832L1216.34 82.761L1226.86 75.1935L1230.9 95.3832Z" fill="#EDD999"/>
</g>
<g opacity="0.4081">
<path opacity="0.4081" d="M1121.99 167.864L1258.55 285.713L1219.03 213.28L1218.38 212.977L1121.99 167.864ZM1255.75 282.335L1126.96 171.222L1218.59 214.109L1255.75 282.335Z" fill="#EDD999"/>
</g>
<g opacity="0.9412">
<path opacity="0.9412" d="M1253.59 195.334L1315.98 197.408L1199.99 105.572L1253.59 195.334ZM1312.95 195.992L1253.72 193.961L1202.92 108.853L1312.95 195.992Z" fill="#EDD999"/>
</g>
<g opacity="0.2546">
<path opacity="0.2546" d="M1766.9 601.36L1828.38 617.172L1752.7 516.601L1766.9 601.36ZM1826.18 615.424L1768.1 600.492L1754.68 520.311L1826.18 615.424Z" fill="#EDD999"/>
</g>
<g opacity="0.5939">
<path opacity="0.5939" d="M1700.95 470.424L1754.8 519.969L1735.35 471.332L1700.95 470.424ZM1752.43 516.794L1703.63 471.835L1734.88 472.701L1752.43 516.794Z" fill="#EDD999"/>
</g>
<g opacity="0.2255">
<path opacity="0.2255" d="M1211.05 347.879L1241.33 374.858L1238.99 341.629L1211.05 347.879ZM1239.71 372.43L1213.28 348.843L1237.7 343.33L1239.71 372.43Z" fill="#EDD999"/>
</g>
<g opacity="0.1251">
<path opacity="0.1251" d="M1239.79 373.66L1277.85 399.91L1237.47 340.676L1239.79 373.66ZM1274.72 396.774L1241.19 373.679L1239.24 344.531L1274.72 396.774Z" fill="#EDD999"/>
</g>
<g opacity="0.2913">
<path opacity="0.2913" d="M1276.18 398.806L1322.85 408.082L1236.55 340.565L1276.18 398.806ZM1319.31 406.266L1276.38 397.63L1239.99 344.245L1319.31 406.266Z" fill="#EDD999"/>
</g>
<g opacity="0.7893">
<path opacity="0.7893" d="M1236.84 344.203L1297.94 314.093L1256.5 283.083L1236.84 344.203ZM1295.73 313.376L1239.78 340.806L1257.81 284.967L1295.73 313.376Z" fill="#EDD999"/>
</g>
<g opacity="0.7612">
<path opacity="0.7612" d="M1078.31 287.345L1079.07 287.06L1022.37 219.797L1018.89 222.303L1078.31 287.345ZM1023.13 221.821L1066.91 273.734L1020.92 223.411L1023.13 221.821Z" fill="#EDD999"/>
</g>
<g opacity="0.3186">
<path opacity="0.3186" d="M1069.87 185.868L1108.43 219.982L1100.99 172.196L1083.35 176.426L1069.87 185.868ZM1106.81 217.554L1071.95 186.682L1084.54 177.62L1099.98 173.95L1106.81 217.554Z" fill="#EDD999"/>
</g>
<g opacity="0.769">
<path opacity="0.769" d="M1134.69 332.505L1201.97 396.769L1196.07 349.936L1134.69 332.505ZM1200.34 394.094L1137.81 334.364L1194.7 350.409L1200.34 394.094Z" fill="#EDD999"/>
</g>
<g opacity="0.7914">
<path opacity="0.7914" d="M1201.36 395.925L1277.08 429.217L1274.55 424.616L1200.87 394.74L1201.36 395.925ZM1275 427.372L1231.36 408.217L1273.98 425.541L1275 427.372Z" fill="#EDD999"/>
</g>
<g opacity="0.7235">
<path opacity="0.7235" d="M1352.27 455.185L1387.21 470.342L1346.15 436.489L1352.27 455.185ZM1382.11 467.081L1353.21 454.51L1348.05 438.97L1382.11 467.081Z" fill="#EDD999"/>
</g>
<g opacity="0.1424">
<path opacity="0.1424" d="M1290.93 101.206L1280.55 45.2772L1270.54 41.7036L1262.9 47.1985L1290.93 101.206ZM1279.4 45.8508L1288.41 94.2967L1264.5 48.1042L1271.59 42.9949L1279.4 45.8508Z" fill="#EDD999"/>
</g>
<g opacity="0.3504">
<path opacity="0.3504" d="M1702.3 581.626L1769.81 602.087L1707.8 557.391L1702.3 581.626ZM1765.04 599.616L1704.09 581.11L1709.03 559.324L1765.04 599.616Z" fill="#EDD999"/>
</g>
<g opacity="0.5955">
<path opacity="0.5955" d="M1708.16 558.673L1767.46 601.466L1767.55 600.633L1699.54 544.855L1708.16 558.673ZM1758.02 593.628L1708.83 558.191L1702.68 548.237L1758.02 593.628Z" fill="#EDD999"/>
</g>
<g opacity="0.8014">
<path opacity="0.8014" d="M1550.08 309.999L1595.22 354.515L1589.17 338.08L1550.08 309.999ZM1592.99 351.244L1557.31 316.089L1588.2 338.263L1592.99 351.244Z" fill="#EDD999"/>
</g>
<g opacity="0.38">
<path opacity="0.38" d="M1593.99 353.861L1630.12 341.975L1588.09 337.574L1593.99 353.861ZM1623.02 342.468L1594.22 351.899L1589.43 338.919L1623.02 342.468Z" fill="#EDD999"/>
</g>
<g opacity="0.9285">
<path opacity="0.9285" d="M1400.66 359.782L1409.32 339.175L1396.8 341.51L1400.66 359.782ZM1406.65 341.349L1401.05 354.877L1398.64 343.008L1406.65 341.349Z" fill="#EDD999"/>
</g>
<g opacity="0.9356">
<path opacity="0.9356" d="M1297.19 314.377L1401.6 358.076L1398.21 341.775L1296.48 313.09L1297.19 314.377ZM1399.96 356.433L1304.59 316.491L1397.14 342.546L1399.96 356.433Z" fill="#EDD999"/>
</g>
</g>
</svg>
