<svg width="31" height="31" viewBox="0 0 31 31" fill="none" xmlns="http://www.w3.org/2000/svg">
<path d="M22.1645 31C22.5518 31.0023 22.9357 30.9253 23.2937 30.7733C23.6518 30.6214 23.9768 30.3976 24.2499 30.115L28.202 26.05C28.4736 25.769 28.626 25.3888 28.626 24.9925C28.626 24.5962 28.4736 24.2161 28.202 23.935L22.3686 17.935C22.0954 17.6557 21.7258 17.4988 21.3405 17.4988C20.9552 17.4988 20.5856 17.6557 20.3124 17.935L17.9791 20.32C16.3636 19.877 14.8674 19.0614 13.6041 17.935C12.5119 16.6335 11.7193 15.0953 11.2853 13.435L13.6041 11.035C13.8757 10.754 14.0281 10.3738 14.0281 9.97753C14.0281 9.58125 13.8757 9.20107 13.6041 8.92003L7.77072 2.92003C7.49748 2.64065 7.12786 2.48384 6.74259 2.48384C6.35732 2.48384 5.98771 2.64065 5.71447 2.92003L1.77697 7.00003C1.50227 7.28089 1.2847 7.61522 1.13697 7.9835C0.989247 8.35178 0.914315 8.74664 0.916553 9.14503C1.04886 14.9085 3.28791 20.409 7.18739 24.55C11.2134 28.5609 16.5611 30.8639 22.1645 31ZM6.74989 6.11503L10.527 10L8.64572 11.935C8.46754 12.1067 8.33411 12.3216 8.25767 12.5601C8.18124 12.7986 8.16423 13.053 8.20822 13.3C8.7533 15.8056 9.90734 18.128 11.5624 20.05C13.4296 21.7546 15.6881 22.9419 18.1249 23.5C18.3614 23.5509 18.6065 23.5405 18.8381 23.4698C19.0698 23.3991 19.2807 23.2703 19.452 23.095L21.3332 21.115L25.1103 25L22.1936 28C17.3574 27.8719 12.7429 25.8867 9.25822 22.435C5.89372 18.8493 3.95807 14.0967 3.83322 9.11503L6.74989 6.11503ZM27.1665 14.5H30.0832C30.121 12.7165 29.8074 10.9436 29.1612 9.28814C28.515 7.63266 27.5496 6.1289 26.3232 4.86747C25.0968 3.60605 23.6348 2.61308 22.0253 1.94841C20.4158 1.28374 18.6922 0.961132 16.9582 1.00003V4.00003C18.3114 3.95188 19.6598 4.19054 20.9195 4.70118C22.1792 5.21182 23.3233 5.98351 24.2807 6.96829C25.2382 7.95307 25.9884 9.12989 26.4849 10.4256C26.9813 11.7213 27.2134 13.1082 27.1665 14.5Z" fill="#C19F80"/>
</svg>
