<svg width="20" height="20" viewBox="-2 0 26 30" fill="none" xmlns="http://www.w3.org/2000/svg">
<path d="M12.0313 0C8.84153 0.00387053 5.78352 1.3089 3.52804 3.62883C1.27256 5.94875 0.00377582 9.09413 1.28e-05 12.375C-0.00380755 15.0561 0.847648 17.6645 2.42376 19.8C2.42376 19.8 2.75189 20.2444 2.80548 20.3085L12.0313 31.5L21.2614 20.3029C21.3095 20.2433 21.6388 19.8 21.6388 19.8L21.6399 19.7966C23.2152 17.6621 24.0663 15.0549 24.0625 12.375C24.0588 9.09413 22.79 5.94875 20.5345 3.62883C18.279 1.3089 15.221 0.00387053 12.0313 0ZM12.0313 16.875C11.166 16.875 10.3201 16.6111 9.60064 16.1166C8.88118 15.6221 8.32042 14.9193 7.98929 14.0971C7.65816 13.2748 7.57152 12.37 7.74033 11.4971C7.90914 10.6242 8.32582 9.82236 8.93767 9.19302C9.54953 8.56368 10.3291 8.1351 11.1777 7.96147C12.0264 7.78783 12.9061 7.87695 13.7055 8.21754C14.5049 8.55814 15.1882 9.13491 15.6689 9.87493C16.1497 10.615 16.4063 11.485 16.4063 12.375C16.4048 13.568 15.9434 14.7117 15.1233 15.5553C14.3031 16.3989 13.1911 16.8735 12.0313 16.875Z" fill="#C19F80"/>
</svg>
