<svg width="35" height="36" viewBox="0 0 35 36" fill="none" xmlns="http://www.w3.org/2000/svg">
<path d="M4.375 7.875V25.875C4.375 26.4717 4.60547 27.044 5.0157 27.466C5.42594 27.8879 5.98234 28.125 6.5625 28.125H28.4375C29.0177 28.125 29.5741 27.8879 29.9843 27.466C30.3945 27.044 30.625 26.4717 30.625 25.875V7.875H4.375ZM4.375 5.625H30.625C31.2052 5.625 31.7616 5.86205 32.1718 6.28401C32.582 6.70597 32.8125 7.27826 32.8125 7.875V25.875C32.8125 27.0685 32.3516 28.2131 31.5311 29.057C30.7106 29.9009 29.5978 30.375 28.4375 30.375H6.5625C5.40218 30.375 4.28938 29.9009 3.46891 29.057C2.64844 28.2131 2.1875 27.0685 2.1875 25.875V7.875C2.1875 7.27826 2.41797 6.70597 2.8282 6.28401C3.23844 5.86205 3.79484 5.625 4.375 5.625Z" fill="#C19F80"/>
<path d="M30.8984 7.875L22.4394 17.82C21.8234 18.5443 21.064 19.1247 20.2121 19.5224C19.3602 19.9201 18.4355 20.1258 17.5 20.1258C16.5645 20.1258 15.6398 19.9201 14.7879 19.5224C13.936 19.1247 13.1766 18.5443 12.5606 17.82L4.10156 7.875H30.8984ZM7.00875 7.875L14.2056 16.3373C14.6163 16.8202 15.1226 17.2073 15.6906 17.4725C16.2586 17.7377 16.8751 17.8749 17.4989 17.8749C18.1227 17.8749 18.7393 17.7377 19.3073 17.4725C19.8753 17.2073 20.3815 16.8202 20.7922 16.3373L27.9912 7.875H7.00875Z" fill="#C19F80"/>
</svg>
