<svg width="40" height="43" viewBox="0 0 40 43" fill="none" xmlns="http://www.w3.org/2000/svg">
<path d="M40 30.2344V2.01562C40 0.898633 39.0446 0 37.8571 0H8.57143C3.83929 0 0 3.61133 0 8.0625V34.9375C0 39.3887 3.83929 43 8.57143 43H37.8571C39.0446 43 40 42.1014 40 40.9844V39.6406C40 39.0107 39.6875 38.4396 39.2054 38.0701C38.8304 36.7768 38.8304 33.0898 39.2054 31.7965C39.6875 31.4354 40 30.8643 40 30.2344ZM11.4286 11.2539C11.4286 10.9768 11.6696 10.75 11.9643 10.75H30.8929C31.1875 10.75 31.4286 10.9768 31.4286 11.2539V12.9336C31.4286 13.2107 31.1875 13.4375 30.8929 13.4375H11.9643C11.6696 13.4375 11.4286 13.2107 11.4286 12.9336V11.2539ZM11.4286 16.6289C11.4286 16.3518 11.6696 16.125 11.9643 16.125H30.8929C31.1875 16.125 31.4286 16.3518 31.4286 16.6289V18.3086C31.4286 18.5857 31.1875 18.8125 30.8929 18.8125H11.9643C11.6696 18.8125 11.4286 18.5857 11.4286 18.3086V16.6289ZM34.0536 37.625H8.57143C6.99107 37.625 5.71429 36.424 5.71429 34.9375C5.71429 33.4594 7 32.25 8.57143 32.25H34.0536C33.8839 33.6861 33.8839 36.1889 34.0536 37.625Z" fill="#F25589"/>
</svg>
