<svg width="50" height="50" viewBox="0 0 50 50" fill="none" xmlns="http://www.w3.org/2000/svg">
<path d="M40 5.42632V0H10V5.42632H0V13.1579C0 19.8026 4.7225 25.2579 10.81 26.1368C11.6819 28.8284 13.2285 31.222 15.2862 33.0647C17.3439 34.9074 19.8363 36.1307 22.5 36.6053V39.4737C22.5 40.8696 21.9732 42.2083 21.0355 43.1953C20.0979 44.1823 18.8261 44.7368 17.5 44.7368H15V50H35V44.7368H32.5C31.1739 44.7368 29.9021 44.1823 28.9645 43.1953C28.0268 42.2083 27.5 40.8696 27.5 39.4737V36.6053C30.1637 36.1307 32.6561 34.9074 34.7138 33.0647C36.7715 31.222 38.3181 28.8284 39.19 26.1368C45.2775 25.2579 50 19.8026 50 13.1579V5.42632H40ZM5 13.1579V10.6895H10V20.6C8.53873 20.0545 7.27365 19.0464 6.37841 17.7139C5.48318 16.3814 5.00168 14.7899 5 13.1579ZM45 13.1579C44.9981 14.7902 44.5166 16.3819 43.6214 17.7148C42.7262 19.0476 41.4613 20.0564 40 20.6026V10.6895H45V13.1579Z" fill="#FEA116"/>
</svg>
