<svg width="33" height="32" viewBox="0 0 33 32" fill="none" xmlns="http://www.w3.org/2000/svg">
<path d="M27.0675 22.1875C27.0675 22.0347 27.0537 21.9236 27.0259 21.8542C26.9981 21.7847 26.8731 21.6701 26.6509 21.5104C26.4287 21.3507 26.1474 21.1771 25.8071 20.9896C25.4669 20.8021 25.137 20.6181 24.8175 20.4375C24.4981 20.2569 24.1821 20.0833 23.8696 19.9167C23.5571 19.75 23.3592 19.6458 23.2759 19.6042C23.2064 19.5625 23.0745 19.4722 22.88 19.3333C22.6856 19.1944 22.512 19.0903 22.3592 19.0208C22.2064 18.9514 22.0606 18.9167 21.9217 18.9167C21.7134 18.9167 21.4599 19.059 21.1613 19.3438C20.8627 19.6285 20.5884 19.941 20.3384 20.2812C20.0884 20.6215 19.821 20.934 19.5363 21.2188C19.2516 21.5035 19.0189 21.6458 18.8384 21.6458C18.7412 21.6458 18.6266 21.6215 18.4946 21.5729C18.3627 21.5243 18.255 21.4792 18.1717 21.4375C18.0884 21.3958 17.9703 21.3299 17.8175 21.2396C17.6648 21.1493 17.5675 21.0903 17.5259 21.0625C16.1509 20.2986 14.9703 19.4201 13.9842 18.4271C12.9981 17.434 12.1162 16.25 11.3384 14.875C11.3106 14.8333 11.2516 14.7361 11.1613 14.5833C11.071 14.4306 11.005 14.3125 10.9634 14.2292C10.9217 14.1458 10.8766 14.0382 10.828 13.9062C10.7794 13.7743 10.755 13.6597 10.755 13.5625C10.755 13.3819 10.8974 13.1493 11.1821 12.8646C11.4669 12.5799 11.7794 12.3125 12.1196 12.0625C12.4599 11.8125 12.7724 11.5382 13.0571 11.2396C13.3419 10.941 13.4842 10.6875 13.4842 10.4792C13.4842 10.3403 13.4495 10.1944 13.38 10.0417C13.3106 9.88889 13.2064 9.71528 13.0675 9.52083C12.9287 9.32639 12.8384 9.19444 12.7967 9.125C12.755 9.04167 12.6509 8.84375 12.4842 8.53125C12.3175 8.21875 12.1439 7.90278 11.9634 7.58333C11.7828 7.26389 11.5988 6.93403 11.4113 6.59375C11.2238 6.25347 11.0502 5.97222 10.8905 5.75C10.7307 5.52778 10.6162 5.40278 10.5467 5.375C10.4773 5.34722 10.3662 5.33333 10.2134 5.33333C9.54671 5.33333 8.84532 5.48611 8.10921 5.79167C7.47032 6.08333 6.91477 6.73958 6.44255 7.76042C5.97032 8.78125 5.73421 9.6875 5.73421 10.4792C5.73421 10.7014 5.75157 10.9375 5.7863 11.1875C5.82102 11.4375 5.85574 11.6493 5.89046 11.8229C5.92518 11.9965 5.98768 12.2257 6.07796 12.5104C6.16824 12.7951 6.23768 13 6.2863 13.125C6.33491 13.25 6.42171 13.4792 6.54671 13.8125C6.67171 14.1458 6.7481 14.3542 6.77588 14.4375C7.60921 16.7153 9.11268 18.941 11.2863 21.1146C13.4599 23.2882 15.6856 24.7917 17.9634 25.625C18.0467 25.6528 18.255 25.7292 18.5884 25.8542C18.9217 25.9792 19.1509 26.066 19.2759 26.1146C19.4009 26.1632 19.6057 26.2326 19.8905 26.3229C20.1752 26.4132 20.4044 26.4757 20.578 26.5104C20.7516 26.5451 20.9634 26.5799 21.2134 26.6146C21.4634 26.6493 21.6995 26.6667 21.9217 26.6667C22.7134 26.6667 23.6196 26.4306 24.6405 25.9583C25.6613 25.4861 26.3175 24.9306 26.6092 24.2917C26.9148 23.5556 27.0675 22.8542 27.0675 22.1875ZM32.4009 6V26C32.4009 27.6528 31.8141 29.066 30.6405 30.2396C29.4669 31.4132 28.0537 32 26.4009 32H6.40088C4.7481 32 3.33491 31.4132 2.1613 30.2396C0.987684 29.066 0.400879 27.6528 0.400879 26V6C0.400879 4.34722 0.987684 2.93403 2.1613 1.76042C3.33491 0.586806 4.7481 0 6.40088 0H26.4009C28.0537 0 29.4669 0.586806 30.6405 1.76042C31.8141 2.93403 32.4009 4.34722 32.4009 6Z" fill="#C19F80"/>
</svg>
