<svg width="36" height="28" viewBox="0 0 36 28" fill="none" xmlns="http://www.w3.org/2000/svg">
<path fill-rule="evenodd" clip-rule="evenodd" d="M10.5001 24.75C10.5001 24.4185 10.6318 24.1006 10.8662 23.8662C11.1007 23.6317 11.4186 23.5 11.7501 23.5H34.2501C34.5816 23.5 34.8996 23.6317 35.134 23.8662C35.3684 24.1006 35.5001 24.4185 35.5001 24.75C35.5001 25.0816 35.3684 25.3995 35.134 25.6339C34.8996 25.8683 34.5816 26 34.2501 26H11.7501C11.4186 26 11.1007 25.8683 10.8662 25.6339C10.6318 25.3995 10.5001 25.0816 10.5001 24.75ZM10.5001 14.75C10.5001 14.4185 10.6318 14.1006 10.8662 13.8662C11.1007 13.6317 11.4186 13.5 11.7501 13.5H34.2501C34.5816 13.5 34.8996 13.6317 35.134 13.8662C35.3684 14.1006 35.5001 14.4185 35.5001 14.75C35.5001 15.0816 35.3684 15.3995 35.134 15.6339C34.8996 15.8683 34.5816 16 34.2501 16H11.7501C11.4186 16 11.1007 15.8683 10.8662 15.6339C10.6318 15.3995 10.5001 15.0816 10.5001 14.75ZM10.5001 4.75004C10.5001 4.41852 10.6318 4.10057 10.8662 3.86615C11.1007 3.63173 11.4186 3.50004 11.7501 3.50004H34.2501C34.5816 3.50004 34.8996 3.63173 35.134 3.86615C35.3684 4.10057 35.5001 4.41852 35.5001 4.75004C35.5001 5.08156 35.3684 5.3995 35.134 5.63392C34.8996 5.86834 34.5816 6.00004 34.2501 6.00004H11.7501C11.4186 6.00004 11.1007 5.86834 10.8662 5.63392C10.6318 5.3995 10.5001 5.08156 10.5001 4.75004ZM7.63511 1.36504C7.75152 1.48115 7.84388 1.61909 7.9069 1.77095C7.96991 1.92282 8.00235 2.08562 8.00235 2.25004C8.00235 2.41446 7.96991 2.57726 7.9069 2.72912C7.84388 2.88098 7.75152 3.01892 7.63511 3.13504L3.88511 6.88504C3.769 7.00145 3.63106 7.0938 3.4792 7.15682C3.32734 7.21984 3.16453 7.25227 3.00011 7.25227C2.8357 7.25227 2.67289 7.21984 2.52103 7.15682C2.36917 7.0938 2.23123 7.00145 2.11511 6.88504L0.865114 5.63504C0.748894 5.51882 0.656704 5.38084 0.593806 5.229C0.530908 5.07715 0.498535 4.9144 0.498535 4.75004C0.498535 4.58568 0.530908 4.42293 0.593806 4.27108C0.656704 4.11923 0.748894 3.98126 0.865114 3.86504C0.981334 3.74882 1.11931 3.65663 1.27116 3.59373C1.423 3.53083 1.58575 3.49846 1.75011 3.49846C1.91447 3.49846 2.07722 3.53083 2.22907 3.59373C2.38092 3.65663 2.51889 3.74882 2.63511 3.86504L3.00011 4.23254L5.86511 1.36504C5.98123 1.24863 6.11917 1.15627 6.27103 1.09326C6.42289 1.03024 6.5857 0.997803 6.75011 0.997803C6.91453 0.997803 7.07734 1.03024 7.2292 1.09326C7.38106 1.15627 7.519 1.24863 7.63511 1.36504ZM7.63511 11.365C7.75152 11.4812 7.84388 11.6191 7.9069 11.771C7.96991 11.9228 8.00235 12.0856 8.00235 12.25C8.00235 12.4145 7.96991 12.5773 7.9069 12.7291C7.84388 12.881 7.75152 13.0189 7.63511 13.135L3.88511 16.885C3.769 17.0014 3.63106 17.0938 3.4792 17.1568C3.32734 17.2198 3.16453 17.2523 3.00011 17.2523C2.8357 17.2523 2.67289 17.2198 2.52103 17.1568C2.36917 17.0938 2.23123 17.0014 2.11511 16.885L0.865114 15.635C0.630398 15.4003 0.498535 15.082 0.498535 14.75C0.498535 14.4181 0.630398 14.0998 0.865114 13.865C1.09983 13.6303 1.41817 13.4985 1.75011 13.4985C2.08205 13.4985 2.4004 13.6303 2.63511 13.865L3.00011 14.2325L5.86511 11.365C5.98123 11.2486 6.11917 11.1563 6.27103 11.0933C6.42289 11.0302 6.5857 10.9978 6.75011 10.9978C6.91453 10.9978 7.07734 11.0302 7.2292 11.0933C7.38106 11.1563 7.519 11.2486 7.63511 11.365ZM7.63511 21.365C7.75152 21.4812 7.84388 21.6191 7.9069 21.771C7.96991 21.9228 8.00235 22.0856 8.00235 22.25C8.00235 22.4145 7.96991 22.5773 7.9069 22.7291C7.84388 22.881 7.75152 23.0189 7.63511 23.135L3.88511 26.885C3.769 27.0014 3.63106 27.0938 3.4792 27.1568C3.32734 27.2198 3.16453 27.2523 3.00011 27.2523C2.8357 27.2523 2.67289 27.2198 2.52103 27.1568C2.36917 27.0938 2.23123 27.0014 2.11511 26.885L0.865114 25.635C0.630398 25.4003 0.498535 25.082 0.498535 24.75C0.498535 24.4181 0.630398 24.0998 0.865114 23.865C1.09983 23.6303 1.41817 23.4985 1.75011 23.4985C2.08205 23.4985 2.4004 23.6303 2.63511 23.865L3.00011 24.2325L5.86511 21.365C5.98123 21.2486 6.11917 21.1563 6.27103 21.0933C6.42289 21.0302 6.5857 20.9978 6.75011 20.9978C6.91453 20.9978 7.07734 21.0302 7.2292 21.0933C7.38106 21.1563 7.519 21.2486 7.63511 21.365Z" fill="#C19F80"/>
</svg>
