<svg width="20" height="20" viewBox="0 0 20 20" fill="none" xmlns="http://www.w3.org/2000/svg">
<path d="M0.4873 1.63774C0.411757 1.5622 0.351833 1.47251 0.31095 1.37381C0.270066 1.27511 0.249023 1.16932 0.249023 1.06249C0.249023 0.955655 0.270066 0.849867 0.31095 0.751166C0.351833 0.652464 0.411757 0.562781 0.4873 0.487239C0.562842 0.411696 0.652525 0.351772 0.751227 0.310888C0.849928 0.270005 0.955716 0.248962 1.06255 0.248962C1.16938 0.248962 1.27517 0.270005 1.37387 0.310888C1.47257 0.351772 1.56226 0.411696 1.6378 0.487239L10 8.85111L18.3623 0.487239C18.4378 0.411696 18.5275 0.351772 18.6262 0.310888C18.7249 0.270005 18.8307 0.248962 18.9375 0.248962C19.0444 0.248962 19.1502 0.270005 19.2489 0.310888C19.3476 0.351772 19.4373 0.411696 19.5128 0.487239C19.5883 0.562781 19.6483 0.652464 19.6891 0.751166C19.73 0.849867 19.7511 0.955655 19.7511 1.06249C19.7511 1.16932 19.73 1.27511 19.6891 1.37381C19.6483 1.47251 19.5883 1.5622 19.5128 1.63774L11.1489 9.99999L19.5128 18.3622C19.5883 18.4378 19.6483 18.5275 19.6891 18.6262C19.73 18.7249 19.7511 18.8307 19.7511 18.9375C19.7511 19.0443 19.73 19.1501 19.6891 19.2488C19.6483 19.3475 19.5883 19.4372 19.5128 19.5127C19.4373 19.5883 19.3476 19.6482 19.2489 19.6891C19.1502 19.73 19.0444 19.751 18.9375 19.751C18.8307 19.751 18.7249 19.73 18.6262 19.6891C18.5275 19.6482 18.4378 19.5883 18.3623 19.5127L10 11.1489L1.6378 19.5127C1.56226 19.5883 1.47257 19.6482 1.37387 19.6891C1.27517 19.73 1.16938 19.751 1.06255 19.751C0.955716 19.751 0.849928 19.73 0.751227 19.6891C0.652525 19.6482 0.562842 19.5883 0.4873 19.5127C0.411757 19.4372 0.351833 19.3475 0.31095 19.2488C0.270066 19.1501 0.249023 19.0443 0.249023 18.9375C0.249023 18.8307 0.270066 18.7249 0.31095 18.6262C0.351833 18.5275 0.411757 18.4378 0.4873 18.3622L8.85117 9.99999L0.4873 1.63774Z" fill="white"/>
</svg>
